inDegrees=yes
name=ik_S41_A10_T01
DataType=double
version=3
OpenSimVersion=4.3-2021-08-27-4bc7ad9
endheader
time	pelvis_tilt	pelvis_list	pelvis_rotation	pelvis_tx	pelvis_ty	pelvis_tz	hip_flexion_r	hip_adduction_r	hip_rotation_r	knee_angle_r	knee_angle_r_beta	ankle_angle_r	subtalar_angle_r	mtp_angle_r	hip_flexion_l	hip_adduction_l	hip_rotation_l	knee_angle_l	knee_angle_l_beta	ankle_angle_l	subtalar_angle_l	mtp_angle_l	lumbar_extension	lumbar_bending	lumbar_rotation	arm_flex_r	arm_add_r	arm_rot_r	elbow_flex_r	pro_sup_r	wrist_flex_r	wrist_dev_r	arm_flex_l	arm_add_l	arm_rot_l	elbow_flex_l	pro_sup_l	wrist_flex_l	wrist_dev_l
15.37999999999976	-3.459470511256849	-2.250640184409856	27.88769201732885	0	0.9399999999999999	0	44.98562058755778	-10.00000059470553	-10.00000624152697	54.97695145925928	0.9595288156731757	0	0	0	44.98562058755778	-10.00000059470553	-10.00000624152697	54.97695145925928	0.9595288156731757	0	0	0	-4.297735289204405	-0.3056054250220707	-2.274488858664196	28.70644761644186	-4.210665719924304	24.64577776917075	43.17248376003339	49.96949166011903	0	0	11.18011384712748	-8.100010845355772	-0.32340290923381	57.61659509492869	43.38037612898192	0	0
15.39999999999976	-3.596458849286958	-2.23080136677327	27.49844761229669	0	0.9399999999999999	0	44.98563070745113	-10.00000059321343	-10.00000623167847	54.97696236666454	0.9595290060433104	0	0	0	44.98563070745113	-10.00000059321343	-10.00000623167847	54.97696236666454	0.9595290060433104	0	0	0	-4.401230795511857	-0.24534168511688	-2.085281280944879	28.93484267065857	-4.201219402258702	24.72100433705424	41.69862300704287	50.25669347656021	0	0	11.93249415487606	-7.113812424274603	0.2909483192441512	53.28571929572033	46.54250655553985	0	0
15.41999999999976	-3.682311243953335	-2.142677654498571	27.00909830630181	0	0.9399999999999999	0	44.98564788097713	-10.00000059068492	-10.00000621497461	54.97698086486871	0.9595293288978788	0	0	0	44.98564788097713	-10.00000059068492	-10.00000621497461	54.97698086486871	0.9595293288978788	0	0	0	-4.425309913111783	-0.1652147685131981	-1.844070810740489	28.14762994581077	-3.494937463500071	23.00444889960428	37.13090741248298	53.16776617233619	0	0	11.91768288353133	-6.480745919066832	-0.4444138426521142	49.49746233590282	50.15684509026832	0	0
15.43999999999976	-3.808133965859952	-1.96520622274599	26.16440707619312	0	0.9399999999999999	0	44.98576749112107	-10.00000057852876	-10.00000612278038	54.97714909211091	0.9595322650171467	0	0	0	44.98576749112107	-10.00000057852876	-10.00000612278038	54.97714909211091	0.9595322650171467	0	0	0	-4.45043957673213	0.01106333998826011	-1.576458848212918	25.24921121872488	-1.095252869666398	19.32303392237969	33.87413962247346	58.50940915743077	0	0	12.68954113569582	-5.49182510113494	-0.307981733235576	47.42532027044206	50.91183185807817	0	0
15.45999999999976	-3.810562949534942	-1.963321723862449	26.00308673475583	0	0.9399999999999999	0	44.98584207903119	-10.00000057066432	-10.00000606403529	54.97725175614411	0.9595340568425494	0	0	0	44.98584207903119	-10.00000057066432	-10.00000606403529	54.97725175614411	0.9595340568425494	0	0	0	-4.448328264434725	-0.003215667411795289	-1.416979525344261	24.7864130788727	-0.4420503132378005	16.78364296240288	31.68926655586197	59.98758618455735	0	0	12.66520390723704	-5.184289126141779	-0.681836459269484	44.44112080491323	53.1666871457001	0	0
15.47999999999976	-3.89315481168938	-1.905005712598715	25.65980460972354	0	0.9399999999999999	0	44.98588770603091	-10.00000056562128	-10.00000602706926	54.97731285918349	0.9595351232917696	0	0	0	44.98588770603091	-10.00000056562128	-10.00000602706926	54.97731285918349	0.9595351232917696	0	0	0	-4.498116307431797	0.08395727745859065	-1.431071464511836	24.59543004252401	-0.160535485591104	15.47714902200921	29.93492571291011	60.07466527702872	0	0	14.55676215989762	-3.880522723895845	0.6227841521482017	40.639081406527	53.41795592465288	0	0
15.49999999999976	-3.930660689806775	-1.845383893266273	25.2611267582252	0	0.9399999999999999	0	44.985937239917	-10.00000056055682	-10.00000598874598	54.97738191242048	0.9595363284981141	0	0	0	44.985937239917	-10.00000056055682	-10.00000598874598	54.97738191242048	0.9595363284981141	0	0	0	-4.504199928327782	0.1423042429705539	-1.340600454980342	24.16135648437306	0.01176304238034073	14.75046903743965	29.4662531665432	60.42719568553881	0	0	15.42101463279617	-2.418914460365183	3.321899433207424	38.70029055124515	52.41426472155928	0	0
15.51999999999976	-3.954463664180722	-1.793360289943148	25.01642622774299	0	0.9399999999999999	0	44.98597251504906	-10.00000055669218	-10.00000596029514	54.97742912412816	0.9595371524978588	0	0	0	44.98597251504906	-10.00000055669218	-10.00000596029514	54.97742912412816	0.9595371524978588	0	0	0	-4.50576285440301	0.2056240024912668	-1.411648030686109	23.55688125606887	0.3022427125553817	14.10816765610487	29.22472214779159	60.8663722565317	0	0	15.4859965147253	-1.624574993295677	4.299206132452372	37.24391697342752	52.62504619443273	0	0
15.53999999999976	-4.002046213147533	-1.763877444658747	24.70210642043609	0	0.9399999999999999	0	44.98598465145003	-10.00000055496885	-10.00000594871517	54.97744222526914	0.9595373811559045	0	0	0	44.98598465145003	-10.00000055496885	-10.00000594871517	54.97744222526914	0.9595373811559045	0	0	0	-4.535512510062239	0.249384301143337	-1.379736881722029	23.03476130296562	0.7834082730865142	13.40127462962546	29.04565282737649	61.82189925589286	0	0	15.60699861897409	-1.036111135289433	4.996137456890874	35.65139899820706	53.20287949734804	0	0
